<?xml version="1.0" encoding="utf-8"?>
<!-- Generator: Adobe Illustrator 21.0.1, SVG Export Plug-In . SVG Version: 6.00 Build 0)  -->
<svg version="1.1" id="Layer_1" xmlns="http://www.w3.org/2000/svg" xmlns:xlink="http://www.w3.org/1999/xlink" x="0px" y="0px"
	 viewBox="0 0 428.4 145" style="enable-background:new 0 0 428.4 145;" xml:space="preserve">
<style type="text/css">
	.st0{fill:#FFFFFF;}
</style>
<g>
	<path class="st0" d="M93.7,110.3c13.1-6.3,21.2-19.7,21.2-37.8c0-18-8-31.3-21.4-37.6V0c32.9,7.7,54.2,36.5,54.2,72.5
		c0,35.8-21.9,64.6-53.6,72.4v-34.8"/>
</g>
<g>
	<path class="st0" d="M16.2,90.5c11-0.3,18.1-7.8,18.1-18.6s-7.7-19.2-18.1-19.2H0l0-0.2l0-31.8h16.2c29.4,0,52.2,22.8,52.2,51.1
		c0,28.3-22.8,51.1-52.2,51.1L0,122.8l0-32.1"/>
</g>
<g>
	<path class="st0" d="M208.4,49.4c0,5.3-4.3,9.6-9.8,9.6h-4.2v8.8h-6.4V39.9h10.5C204.1,39.9,208.4,44.1,208.4,49.4z M202,49.4
		c0-2-1.4-3.6-3.4-3.6h-4.2V53h4.2C200.6,53,202,51.5,202,49.4z"/>
	<path class="st0" d="M221,58.6h-3v9.2h-6.4V39.9h11.1c5.3,0,9.6,4.3,9.6,9.6c0,3.4-2.1,6.5-5.1,8.1l5.9,10.2h-6.8L221,58.6z
		 M218,53h4.8c1.8,0,3.2-1.6,3.2-3.6c0-2-1.4-3.6-3.2-3.6H218V53z"/>
	<path class="st0" d="M234.5,53.8c0-8.2,6.5-14.5,14.5-14.5c8,0,14.5,6.3,14.5,14.5S257,68.3,249,68.3C241,68.3,234.5,62,234.5,53.8
		z M257.1,53.8c0-5-3.6-8.3-8.1-8.3c-4.5,0-8.1,3.3-8.1,8.3s3.6,8.3,8.1,8.3C253.5,62.1,257.1,58.8,257.1,53.8z"/>
	<path class="st0" d="M284.1,46H277v21.7h-6.4V46h-7.2v-6.1h20.7V46z"/>
	<path class="st0" d="M284.1,53.8c0-8.2,6.5-14.5,14.5-14.5c8,0,14.5,6.3,14.5,14.5s-6.5,14.5-14.5,14.5
		C290.6,68.3,284.1,62,284.1,53.8z M306.8,53.8c0-5-3.6-8.3-8.1-8.3c-4.5,0-8.1,3.3-8.1,8.3s3.6,8.3,8.1,8.3
		C303.2,62.1,306.8,58.8,306.8,53.8z"/>
	<path class="st0" d="M333.8,46h-7.2v21.7h-6.4V46h-7.2v-6.1h20.7V46z"/>
	<path class="st0" d="M349.9,57v10.7h-6.4V57l-9.4-17.2h7.2l5.3,10.7l5.3-10.7h7.2L349.9,57z"/>
	<path class="st0" d="M382,49.4c0,5.3-4.3,9.6-9.8,9.6H368v8.8h-6.4V39.9h10.5C377.7,39.9,382,44.1,382,49.4z M375.6,49.4
		c0-2-1.4-3.6-3.4-3.6H368V53h4.2C374.2,53,375.6,51.5,375.6,49.4z"/>
	<path class="st0" d="M402.7,61.6v6.1h-17.5V39.9h17.3V46h-10.9v4.6h9.9v6h-9.9v4.9H402.7z"/>
	<path class="st0" d="M208.3,83.2v27.9h-2v-4.6c-1.6,3.1-4.7,5.1-8.6,5.1c-5.7,0-10.3-4.5-10.3-10.4c0-5.9,4.6-10.4,10.3-10.4
		c3.9,0,6.9,2,8.6,5.1V83.2H208.3z M206.3,101.1c0-4.7-3.7-8.5-8.4-8.5c-4.7,0-8.4,3.7-8.4,8.5c0,4.7,3.7,8.5,8.4,8.5
		C202.6,109.6,206.3,105.9,206.3,101.1z"/>
	<path class="st0" d="M233.2,101.2c0,0.3,0,0.6,0,1h-18c0.5,4.5,3.9,7.4,8.4,7.4c3.3,0,5.7-1.5,6.9-3.6l1.8,1
		c-1.6,2.7-4.7,4.5-8.7,4.5c-6.1,0-10.5-4.4-10.5-10.4c0-5.8,4.2-10.4,10.3-10.4C229.5,90.8,233.2,95.8,233.2,101.2z M215.2,100.2
		h16c-0.4-4.9-3.9-7.6-7.8-7.6C218.9,92.7,215.6,95.8,215.2,100.2z"/>
	<path class="st0" d="M253.8,91.2l-8.4,19.9H243l-8.4-19.9h2.1l7.5,17.8l7.5-17.8H253.8z"/>
	<path class="st0" d="M275.4,101.2c0,0.3,0,0.6,0,1h-18c0.5,4.5,3.9,7.4,8.4,7.4c3.3,0,5.7-1.5,6.9-3.6l1.8,1
		c-1.6,2.7-4.7,4.5-8.7,4.5c-6.1,0-10.5-4.4-10.5-10.4c0-5.8,4.2-10.4,10.3-10.4C271.6,90.8,275.4,95.8,275.4,101.2z M257.4,100.2
		h16c-0.4-4.9-3.9-7.6-7.8-7.6C261.1,92.7,257.8,95.8,257.4,100.2z"/>
	<path class="st0" d="M280.1,82h2v29.1h-2V82z"/>
	<path class="st0" d="M286.9,101.1c0-5.9,4.7-10.4,10.5-10.4c5.8,0,10.4,4.5,10.4,10.4c0,5.9-4.7,10.4-10.4,10.4
		C291.5,111.5,286.9,107,286.9,101.1z M305.7,101.1c0-4.7-3.7-8.5-8.4-8.5c-4.7,0-8.4,3.7-8.4,8.5c0,4.7,3.7,8.5,8.4,8.5
		C302.1,109.6,305.7,105.9,305.7,101.1z"/>
	<path class="st0" d="M333.4,101.1c0,5.9-4.6,10.4-10.3,10.4c-3.9,0-6.9-2-8.6-5.1V119h-2V91.2h2v4.6c1.6-3.1,4.7-5.1,8.6-5.1
		C328.8,90.8,333.4,95.2,333.4,101.1z M331.4,101.1c0-4.7-3.7-8.5-8.4-8.5c-4.7,0-8.4,3.7-8.4,8.5c0,4.7,3.7,8.5,8.4,8.5
		C327.7,109.6,331.4,105.9,331.4,101.1z"/>
	<path class="st0" d="M366.7,98.5v12.6h-2V98.5c0-3.8-2.2-5.8-5.3-5.8c-3.3,0-6,2.2-6,7.3v11.1h-2V98.5c0-3.8-2-5.8-5.1-5.8
		c-3.3,0-6.2,2.2-6.2,7.3v11.1h-2V91.2h2v3.4c1.5-2.7,3.9-3.9,6.4-3.9c2.9,0,5.2,1.4,6.2,4.1c1.4-2.8,4-4.1,6.6-4.1
		C363.7,90.8,366.7,93.5,366.7,98.5z"/>
	<path class="st0" d="M391.1,101.2c0,0.3,0,0.6,0,1h-18c0.5,4.5,3.9,7.4,8.4,7.4c3.3,0,5.7-1.5,6.9-3.6l1.8,1
		c-1.6,2.7-4.7,4.5-8.7,4.5c-6.1,0-10.5-4.4-10.5-10.4c0-5.8,4.2-10.4,10.3-10.4C387.3,90.8,391.1,95.8,391.1,101.2z M373,100.2h16
		c-0.4-4.9-3.9-7.6-7.8-7.6C376.7,92.7,373.4,95.8,373,100.2z"/>
	<path class="st0" d="M412.6,98.7v12.4h-2V98.7c0-3.7-2.1-6-5.9-6c-3.9,0-7,2.5-7,7.9v10.5h-2V91.2h2V95c1.5-2.9,4.1-4.2,7.1-4.2
		C409.6,90.8,412.6,93.9,412.6,98.7z"/>
	<path class="st0" d="M422.5,93.1v12.9c0,3.5,1.9,3.6,5.9,3.2v1.8c-5.2,0.8-8-0.5-8-5V93.1H416v-1.9h4.4v-5l2-0.6v5.6h5.9v1.9H422.5
		z"/>
</g>
</svg>
